<mxfile host="65bd71144e">
    <diagram id="LIphU_HrzuvbIepV-scf" name="Page-1">
        <mxGraphModel dx="640" dy="540" grid="1" gridSize="10" guides="1" tooltips="1" connect="1" arrows="1" fold="1" page="1" pageScale="1" pageWidth="850" pageHeight="1100" math="0" shadow="0">
            <root>
                <mxCell id="0"/>
                <mxCell id="1" parent="0"/>
                <mxCell id="46" value="Nombre partici贸n 2" style="swimlane;startSize=20;horizontal=0;html=1;whiteSpace=wrap;fillColor=#1ba1e2;fontColor=#ffffff;strokeColor=#006EAF;fontStyle=0" vertex="1" parent="1">
                    <mxGeometry x="120" y="80" width="260" height="120" as="geometry"/>
                </mxCell>
                <mxCell id="47" value="Nombre partici贸n 1" style="swimlane;startSize=20;horizontal=0;html=1;whiteSpace=wrap;fillColor=#1ba1e2;fontColor=#ffffff;strokeColor=#006EAF;fontStyle=0" vertex="1" parent="1">
                    <mxGeometry x="120" y="200" width="260" height="120" as="geometry"/>
                </mxCell>
                <mxCell id="48" value="Nombre partici贸n 3" style="swimlane;startSize=20;whiteSpace=wrap;html=1;fillColor=#1ba1e2;fontColor=#ffffff;strokeColor=#006EAF;fontStyle=0" vertex="1" parent="1">
                    <mxGeometry x="140" y="60" width="120" height="260" as="geometry"/>
                </mxCell>
                <mxCell id="49" value="Nombre partici贸n 4" style="swimlane;startSize=20;whiteSpace=wrap;html=1;fillColor=#1ba1e2;fontColor=#ffffff;strokeColor=#006EAF;fontStyle=0" vertex="1" parent="1">
                    <mxGeometry x="260" y="60" width="120" height="260" as="geometry"/>
                </mxCell>
            </root>
        </mxGraphModel>
    </diagram>
</mxfile>